/* XPM */
static char *treeicons[] = {
/* columns rows colors chars-per-pixel */
"168 16 11 1",
"  c black",
". c blue",
"X c #008000",
"o c cyan",
"O c #800000",
"+ c red",
"@ c magenta",
"# c #808000",
"$ c yellow",
"% c #C0C0C0",
"& c gray100",
/* pixels */
"&&&&&&&&&&&&&&&&&&&&&&&&&&&&&&&&&&&&&&&&&&&&&&&&&&&&&&&&&&&&&&&&&&&&&&&&&&&&&&&&&&&&&&&&&&&&&&&&&&&&&&&&&&&&&&&&&&&&&&&&&&&&&&&&&&&&&&&&&&&&&&&&&&&&&&&&&&&&&&&&&&&&&&&&",
"&&&&&&&&&&&&&&&&&&&&&&&&&&&&&&&&&&&&&&&&&&&&&&&&&&&&&&&&&&&&&&&&&&&&&&&&&&&&&&&&&&&&&&&&&&&&&&&&&&&&&&&&&&&&&&&&&&&&&&&&&&&&&&&&&&&&&&&&&&&&&&&&&&&&&&&&&&&&&&&&&&&&&&&&",
"&              &&              &&              &&              &&%%%%%%%%%%%%%%&&%%%%%%%%%%%%%%&&              &&              &&              &&              &&&&&&&&&",
"& &&&&&&&&&&&& && &&&&&&&&&&&& && &&&&&&&&&&&& && &&&&    &&&& &&%&&&&&&&&&&&&%&&%&&&&&&&&&&&&%&& %%%%%%%%%%%% && %%%%%%%%%%%% && %%%%%%%%%%%% && %%%%%%%%%%%% &&&&&&&&&",
"& &&&.....&&&& && &&&@@@@@&&&& && &&&+++++&&&& && &&&  &&  &&& &&%&&&&&&&&&&&&%&&%&  &&&&&&&&&%&& %XXXXXXXXXX% && %++++++++++% && %$$$$##$$$$% && %&&&...o&&&% &&&&&&&&&",
"& &&&.&&&&.&&& && &&&@&&&&&&&& && &&&&&+&&&&&& && &&&  &&  &&& &&%&&        &&%&&%&  &&&&&&&&&%&& %XXXXXXXXXX% && %++++++++++% && %$$$$##$$$$% && %&&.o&&.%&&% &&&&&&&&&",
"& &&&.&&&&.&&& && &&&@&&&&&&&& && &&&&&+&&&&&& && &&&&&&&  &&& &&%&&        &&%&&%&  &&&&&&&&&%&& %XXXXX XXXX% && %++++++++++% && %$$$$##$$$$% && %&&&&&&.%&&% &&&&&&&&&",
"& &&&.....&&&& && &&&@@@@@&&&& && &&&&&+&&&&&& && &&&&&&  &&&& &&%&&&&&&&&&&&&%&&%&  &&&&&&&&&%&& %XXXXX XXXX% && %+++O   +++% && %$$$$##$$$$% && %&&&&@.%&&&% &&&&&&&&&",
"& &&&.&&.&&&&& && &&&@&&&&&&&& && &&&&&+&&&&&& && &&&&&  &&&&& &&%&&&&&&&&&&&&%&&%&  &  &&   &%&& %XXX     XX% && %++++++++++% && %$$$$$#$$$$% && %&&&&.%&&&&% &&&&&&&&&",
"& &&&.&&&.&&&& && &&&@&&&&&&&& && &&&&&+&&&&&& && &&&&&  &&&&& &&%&&        &&%&&%&&&&&&&&&&&&%&& %XXXXX XXXX% && %++++++++++% && %$$$$$#$$$$% && %&&&&&&&&&&% &&&&&&&&&",
"& &&&.&&&.&&&& && &&&@&&&&&&&& && &&&&&+&&&&&& && &&&&&&&&&&&& &&%&&        &&%&&%&  &&&&&&&&&%&& %XXXXX XXXX% && %++++++++++% && %$$$$$$$$$$% && %&&&&.%&&&&% &&&&&&&&&",
"& &&&.&&&&.&&& && &&&@@@@@&&&& && &&&&&+&&&&&& && &&&&&  &&&&& &&%&&&&&&&&&&&&%&&%&  &&&&&&&&&%&& %XXXXXXXXXX% && %++++++++++% && %$$$$##$$$$% && %&&&&.%&&&&% &&&&&&&&&",
"& &&&&&&&&&&&& && &&&&&&&&&&&& && &&&&&&&&&&&& && &&&&&  &&&&& &&%&&&&&&&&&&&&%&&%&&&&&&&&&&&&%&& %%%%%%%%%%%% && %%%%%%%%%%%% && %%%%%%%%%%%% && %%%%%%%%%%%% &&&&&&&&&",
"&              &&              &&              &&              &&%%%%%%%%%%%%%%&&%%%%%%%%%%%%%%&&              &&              &&              &&              &&&&&&&&&",
"&&&&&&&&&&&&&&&&&&&&&&&&&&&&&&&&&&&&&&&&&&&&&&&&&&&&&&&&&&&&&&&&&&&&&&&&&&&&&&&&&&&&&&&&&&&&&&&&&&&&&&&&&&&&&&&&&&&&&&&&&&&&&&&&&&&&&&&&&&&&&&&&&&&&&&&&&&&&&&&&&&&&&&&&",
"&&&&&&&&&&&&&&&&&&&&&&&&&&&&&&&&&&&&&&&&&&&&&&&&&&&&&&&&&&&&&&&&&&&&&&&&&&&&&&&&&&&&&&&&&&&&&&&&&&&&&&&&&&&&&&&&&&&&&&&&&&&&&&&&&&&&&&&&&&&&&&&&&&&&&&&&&&&&&&&&&&&&&&&&"
};
