/* XPM */
static char *xpm_ti_root[] = {
/* columns rows colors chars-per-pixel */
"16 16 4 1",
"  c black",
". c blue",
"X c gray100",
"o c None",
/* pixels */
"oooooooooooooooo",
"oooooooooooooooo",
"o              o",
"o oooooooooooo o",
"o ooo.....oooo o",
"o ooo.oooo.ooo o",
"o ooo.oooo.ooo o",
"o ooo.....oooo o",
"o ooo.oo.ooooo o",
"o ooo.ooo.oooo o",
"o ooo.ooo.oooo o",
"o ooo.oooo.ooo o",
"o oooooooooooo o",
"o              o",
"oooooooooooooooo",
"oooooooooooooooo"
};
