/* XPM */
static char *xpm_ti_comment[] = {
/* columns rows colors chars-per-pixel */
"16 16 4 1",
"  c black",
". c #C0C0C0",
"X c gray100",
"o c None",
/* pixels */
"oooooooooooooooo",
"oooooooooooooooo",
"o..............o",
"o.oooooooooooo.o",
"o.o  ooooooooo.o",
"o.o  ooooooooo.o",
"o.o  ooooooooo.o",
"o.o  ooooooooo.o",
"o.o  o  oo   o.o",
"o.oooooooooooo.o",
"o.o  ooooooooo.o",
"o.o  ooooooooo.o",
"o.oooooooooooo.o",
"o..............o",
"oooooooooooooooo",
"oooooooooooooooo"
};
