/* XPM */
static const char *xpm_ti_unknown[] = {
/* columns rows colors chars-per-pixel */
"16 16 3 1",
"  c black",
". c gray100",
"X c None",
/* pixels */
"XXXXXXXXXXXXXXXX",
"XXXXXXXXXXXXXXXX",
"X              X",
"X XXXX    XXXX X",
"X XXX  XX  XXX X",
"X XXX  XX  XXX X",
"X XXXXXXX  XXX X",
"X XXXXXX  XXXX X",
"X XXXXX  XXXXX X",
"X XXXXX  XXXXX X",
"X XXXXXXXXXXXX X",
"X XXXXX  XXXXX X",
"X XXXXX  XXXXX X",
"X              X",
"XXXXXXXXXXXXXXXX",
"XXXXXXXXXXXXXXXX"
};
