/* XPM */
static const char *xpm_ti_added[] = {
/* columns rows colors chars-per-pixel */
"16 16 5 1",
"  c black",
". c #008000",
"X c #C0C0C0",
"o c gray100",
"O c None",
/* pixels */
"OOOOOOOOOOOOOOOO",
"OOOOOOOOOOOOOOOO",
"O              O",
"O XXXXXXXXXXXX O",
"O X..........X O",
"O X..........X O",
"O X..... ....X O",
"O X..... ....X O",
"O X...     ..X O",
"O X..... ....X O",
"O X..... ....X O",
"O X..........X O",
"O XXXXXXXXXXXX O",
"O              O",
"OOOOOOOOOOOOOOOO",
"OOOOOOOOOOOOOOOO"
};
