/* XPM */
static const char *xpm_ti_modified[] = {
/* columns rows colors chars-per-pixel */
"16 16 6 1",
"  c black",
". c #808000",
"X c yellow",
"o c #C0C0C0",
"O c gray100",
"+ c None",
/* pixels */
"++++++++++++++++",
"++++++++++++++++",
"+              +",
"+ oooooooooooo +",
"+ oXXXX..XXXXo +",
"+ oXXXX..XXXXo +",
"+ oXXXX..XXXXo +",
"+ oXXXX..XXXXo +",
"+ oXXXXX.XXXXo +",
"+ oXXXXX.XXXXo +",
"+ oXXXXXXXXXXo +",
"+ oXXXX..XXXXo +",
"+ oooooooooooo +",
"+              +",
"++++++++++++++++",
"++++++++++++++++"
};
