/* XPM */
static const char *xpm_light_red[] = {
/* columns rows colors chars-per-pixel */
"16 16 109 2",
"   c #000000",
".  c #000001",
"X  c #000101",
"o  c #000202",
"O  c #020200",
"+  c #060600",
"@  c #0A0A00",
"#  c #0B0C0C",
"$  c #0B0E0E",
"%  c #0D0D0D",
"&  c #0D1010",
"*  c #231515",
"=  c #231717",
"-  c #202000",
";  c #232222",
":  c #232727",
">  c #242424",
",  c #242525",
"<  c #3D3D3D",
"1  c #3D3E3E",
"2  c #4D3737",
"3  c #7F2F2F",
"4  c #555500",
"5  c #595900",
"6  c #5E5E00",
"7  c #636300",
"8  c #656500",
"9  c #777700",
"0  c #4D4D43",
"q  c #4D4E43",
"w  c #4D4D4D",
"e  c #575555",
"r  c #575656",
"t  c #7F4D4D",
"y  c #7F5656",
"u  c #6F6F59",
"i  c #6F7059",
"p  c #746767",
"a  c #746C6C",
"s  c #7F7171",
"d  c #A10303",
"f  c #A20000",
"g  c #A10A0A",
"h  c #A20D0D",
"j  c #8C4C4C",
"k  c #8C4D4D",
"l  c #806868",
"z  c #807676",
"x  c #917171",
"c  c #B16565",
"v  c #B17575",
"b  c #CB3000",
"n  c #CF3737",
"m  c #CF3F3F",
"M  c #DE3636",
"N  c #EA0000",
"B  c #FF0E00",
"V  c #FF0F00",
"C  c #FF1801",
"Z  c #F11919",
"A  c #FF2616",
"S  c #FF3100",
"D  c #EE3B2F",
"F  c #FF3232",
"G  c #FF3C3D",
"H  c #FF3D3E",
"J  c #CB4A00",
"K  c #C34646",
"L  c #DC6666",
"P  c #DC6C6C",
"I  c #EE4B40",
"U  c #F14B4B",
"Y  c #FF4949",
"T  c #FF494A",
"R  c #FF4E4B",
"E  c #FF4C4C",
"W  c #FF6965",
"Q  c #FF696A",
"!  c #FF6B6C",
"~  c #FF7373",
"^  c #FF7475",
"/  c #FF7B7B",
"(  c #919100",
")  c #B19D9D",
"_  c #A8A0A0",
"`  c #A8ACAC",
"'  c #B1AEAF",
"]  c #B1B2B3",
"[  c #B1B6B6",
"{  c #C38989",
"}  c #DE9898",
"|  c #EB8F8F",
" . c #F38A8A",
".. c #FF8585",
"X. c #FF8787",
"o. c #FF8D8D",
"O. c #FF8E8E",
"+. c #FF8F8F",
"@. c #FF9192",
"#. c #FF9494",
"$. c #FF9D9D",
"%. c #F2A1A1",
"&. c #F3A5A5",
"*. c #F2B8B8",
"=. c #CCC4C4",
"-. c #CCCECE",
";. c #EBC7C7",
":. c #FFC6C6",
">. c None",
/* pixels */
">.>.>.>.  & r x x r %   >.>.>.>.",
">.>.>.  < c %.$.O.*.[ <   >.>.>.",
">.>.>.$ v F ~ #.O.+.:.) $ >.>.>.",
">.>.  w &.^ Q G G T /  .2   >.>.",
">.>.  s ..W A V V C R X.t   >.>.",
">.>.  a ! D b S S J I +.p   >.>.",
">.>.>.: P Z d N N h U L ; >.>.>.",
">.>.>.  y E n f g K T 3   >.>.>.",
">.>.>.>.= M K j j { } * >.>.>.>.",
">.>.>.>.  l | _ ` ;.z   >.>.>.>.",
">.>.>.>.>., =.' ] -.> >.>.>.>.>.",
">.>.>.>.>.  0 u u 0 O >.>.>.>.>.",
">.>.>.>.>.+ 8 ( ( 8 + >.>.>.>.>.",
">.>.>.>.>.@ 4 6 6 4 @ >.>.>.>.>.",
">.>.>.>.>.@ 5 9 9 5 @ >.>.>.>.>.",
">.>.>.>.>.O - 8 8 - O >.>.>.>.>."
};
