/* XPM */
static char *xpm_light_green[] = {
/* columns rows colors chars-per-pixel */
"16 16 111 2",
"   c #000000",
".  c #000001",
"X  c #010001",
"o  c #020002",
"O  c #020200",
"+  c #060600",
"@  c #0A0A00",
"#  c #0C0B0C",
"$  c #0E0B0E",
"%  c #0D0D0D",
"&  c #100D10",
"*  c #152315",
"=  c #172317",
"-  c #202000",
";  c #222322",
":  c #272327",
">  c #242424",
",  c #252425",
"<  c #3D3D3D",
"1  c #3E3D3E",
"2  c #374D37",
"3  c #2F7F2F",
"4  c #555500",
"5  c #595900",
"6  c #5E5E00",
"7  c #407F00",
"8  c #636300",
"9  c #656500",
"0  c #777700",
"q  c #4D4D43",
"w  c #4E4D43",
"e  c #4D4D4D",
"r  c #555755",
"t  c #565756",
"y  c #4D7F4D",
"u  c #567F56",
"i  c #6F6F59",
"p  c #706F59",
"a  c #677467",
"s  c #6C746C",
"d  c #717F71",
"f  c #00A200",
"g  c #03A203",
"h  c #0AA30A",
"j  c #0DA20D",
"k  c #269800",
"l  c #00EA00",
"z  c #00EB00",
"x  c #0EEE00",
"c  c #0FEE00",
"v  c #15E701",
"b  c #19F119",
"n  c #31CF00",
"m  c #32CF00",
"M  c #37CF37",
"N  c #3FCF3F",
"B  c #36DE36",
"V  c #23F016",
"C  c #38E22F",
"Z  c #32FF32",
"A  c #3CFF3D",
"S  c #3DFF3E",
"D  c #4C8C4C",
"F  c #4D8C4D",
"G  c #688068",
"H  c #768076",
"J  c #719171",
"K  c #65B165",
"L  c #75B175",
"P  c #46C346",
"I  c #48E240",
"U  c #4BF14B",
"Y  c #49FF49",
"T  c #49FF4A",
"R  c #4DFB4B",
"E  c #4CFF4C",
"W  c #66DC66",
"Q  c #6CDC6C",
"!  c #68FB65",
"~  c #69FF6A",
"^  c #6BFF6C",
"/  c #73FF73",
"(  c #75FF75",
")  c #7BFF7B",
"_  c #919100",
"`  c #9DB19D",
"'  c #A0A8A0",
"]  c #ACA8AC",
"[  c #AEB1AF",
"{  c #B2B1B3",
"}  c #B6B1B6",
"|  c #89C389",
" . c #98DE98",
".. c #8FEB8F",
"X. c #85FF85",
"o. c #87FF87",
"O. c #8AF38A",
"+. c #8DFF8D",
"@. c #8EFF8E",
"#. c #8FFF8F",
"$. c #91FF92",
"%. c #94FF94",
"&. c #9DFF9D",
"*. c #A1F2A1",
"=. c #A5F3A5",
"-. c #B8F2B8",
";. c #C4CCC4",
":. c #CECCCE",
">. c #C7EBC7",
",. c #C6FFC6",
"<. c None",
/* pixels */
"<.<.<.<.  & t J J t %   <.<.<.<.",
"<.<.<.  < K *.&.@.-.} <   <.<.<.",
"<.<.<.$ L Z / %.@.#.,.` $ <.<.<.",
"<.<.  e =.( ~ A A T ) O.2   <.<.",
"<.<.  d X.! V c c v R o.y   <.<.",
"<.<.  s ^ C k m m 7 I #.a   <.<.",
"<.<.<.: Q b g z l j U W ; <.<.<.",
"<.<.<.  u E M f h P T 3   <.<.<.",
"<.<.<.<.= B P D D |  .* <.<.<.<.",
"<.<.<.<.  G ..' ] >.H   <.<.<.<.",
"<.<.<.<.<., ;.[ { :.> <.<.<.<.<.",
"<.<.<.<.<.  q i i q O <.<.<.<.<.",
"<.<.<.<.<.+ 9 _ _ 9 + <.<.<.<.<.",
"<.<.<.<.<.@ 4 6 6 4 @ <.<.<.<.<.",
"<.<.<.<.<.@ 5 0 0 5 @ <.<.<.<.<.",
"<.<.<.<.<.O - 9 9 - O <.<.<.<.<."
};
