/* XPM */
static const char *xpm_explorer[] = {
/* columns rows colors chars-per-pixel */
"16 16 15 1",
"  c #040404",
". c navy",
"X c blue",
"o c cyan",
"O c #808000",
"+ c #999900",
"@ c #CCCC66",
"# c #868686",
"$ c #FFCC99",
"% c #FFFF99",
"& c #C0C0C0",
"* c #FFFFCC",
"= c #F1F1F1",
"- c gray100",
"; c None",
/* pixels */
";;;;;;;;;;;;;;;;",
";;+++++ ;;;;;;;;",
";+=**%%+ ;;;;;;;",
"+@@@@@@@++++++;;",
"+**$## #****%@ ;",
"+*$#-o- #%%%$@ ;",
"+*#-o-o& $%$%@ ;",
"+*#o-o&o $$%$@ ;",
"+*#-o&o& $%$%@ ;",
"+*$#&o& #O$%$@ ;",
"+*%$#  #&XX$$@ ;",
"+*$%$%$$.oXX$@ ;",
"+@@@@@@@+.oXX+ ;",
";         .oXX ;",
";;;;;;;;;;;.oX ;",
";;;;;;;;;;;;  ;;"
};
