/* XPM */
static char *xpm_xmltreenav[] = {
/* columns rows colors chars-per-pixel */
"16 16 129 2",
"   c #000000",
".  c #000101",
"X  c #000203",
"o  c #000405",
"O  c #050500",
"+  c #000608",
"@  c #000B0E",
"#  c #000C0E",
"$  c #0B0A00",
"%  c #0B0B00",
"&  c #0D0D00",
"*  c #000D10",
"=  c #000E11",
"-  c #001013",
";  c #001215",
":  c #121100",
">  c #141407",
",  c #151515",
"<  c #161615",
"1  c #002026",
"2  c #00232B",
"3  c #00252C",
"4  c #002D37",
"5  c #303004",
"6  c #282827",
"7  c #2E2E2C",
"8  c #323231",
"9  c #3A3A39",
"0  c #3A3A3A",
"q  c #3D3B3A",
"w  c #3C3C3B",
"e  c #3D3D3B",
"r  c #3E3E3D",
"t  c #003D4A",
"y  c #004959",
"u  c #005263",
"i  c #005567",
"p  c #00586A",
"a  c #0B5362",
"s  c #1D6775",
"d  c #2F5054",
"f  c #3C4544",
"g  c #29737F",
"h  c #575401",
"j  c #5C5C15",
"k  c #4E4E33",
"l  c #575737",
"z  c #626216",
"x  c #6F6D1B",
"c  c #7F7E01",
"v  c #6F6F27",
"b  c #6B6B29",
"n  c #777723",
"m  c #7D7D21",
"M  c #7C7B41",
"N  c #7C7B53",
"B  c #757561",
"V  c #75786D",
"C  c #006B81",
"Z  c #006D84",
"A  c #00728A",
"S  c #00738A",
"D  c #207181",
"F  c #008AA7",
"G  c #268193",
"H  c #2196AD",
"J  c #3A91A0",
"K  c #478893",
"L  c #5596A0",
"P  c #5BA4A9",
"I  c #58A4B0",
"U  c #58A6B2",
"Y  c #628A93",
"T  c #738F8F",
"R  c #798380",
"E  c #789394",
"W  c #75B1BC",
"Q  c #8F8F30",
"!  c #8A8A3C",
"~  c #9E9D3B",
"^  c #87995C",
"/  c #9F9D47",
"(  c #909052",
")  c #939250",
"_  c #92915E",
"`  c #87857F",
"'  c #898B75",
"]  c #85947A",
"[  c #9B9A74",
"{  c #A4A443",
"}  c #A1A152",
"|  c #A7A65A",
" . c #A0A363",
".. c #848483",
"X. c #868580",
"o. c #868F8C",
"O. c #8B8985",
"+. c #8C8A87",
"@. c #8F928E",
"#. c #969283",
"$. c #999793",
"%. c #9A9996",
"&. c #A9A9A3",
"*. c #B2B0A7",
"=. c #BBB9A2",
"-. c #BABBA3",
";. c #B6BBB5",
":. c #B8BBB6",
">. c #BAB9B4",
",. c #9FC4C4",
"<. c #AAC7C5",
"1. c #C0BFBC",
"2. c #C1C0B6",
"3. c #C3C2BF",
"4. c #C6C3BD",
"5. c #C5C4B9",
"6. c #C5C9BB",
"7. c #CBCAB9",
"8. c #C7CEC6",
"9. c #C9C7C0",
"0. c #CCCBC6",
"q. c #D5D2C4",
"w. c #D1D1CE",
"e. c #D8D4C4",
"r. c #D8D5C6",
"t. c #DAD8CE",
"y. c #DBD8D0",
"u. c #E4E1D9",
"i. c None",
/* pixels */
"i.i.i.i.i.i.i.i.i.i.i.i.i.i.i.i.",
"i.i.i.i.i.i.i.i.i.# # i.i.i.i.i.",
"i.i.i.* 2 o     X i t 3 * i.i.i.",
"  1 a G U o.O.` R J T D Z u 2   ",
"; S H <.@.$.&.r.<.L #.f y F S - ",
"o 4 s U K ;.3.q.W Y V D C p 4 o ",
"i.i.w 8.T ;.y.6.P ] ' d ; i.i.i.",
"i.i.e t.9.w.5. .^ =._ x % i.i.i.",
"i.i.w 0...` B ) / 7.! c :   i.i.",
"i.i.w 3.+.r.M | } [ ( ~ h % i.i.",
"i.i.w 1.%.u.N m m { v Q 5 O i.i.",
"i.i.w >.*.1.=.b l z k j & i.i.i.",
"i.i.< r q 0 0 7 8 > 6 <   i.i.i.",
"i.i.                    i.i.i.i.",
"i.i.i.i.i.i.i.i.i.i.i.i.i.i.i.i.",
"i.i.i.i.i.i.i.i.i.i.i.i.i.i.i.i."
};
