/* XPM */
static const char *xpm_history_folder[] = {
/* columns rows colors chars-per-pixel */
"16 16 20 1",
"  c #040404",
". c #333300",
"X c gray20",
"o c #393939",
"O c gray26",
"+ c gray30",
"@ c #777777",
"# c #996633",
"$ c #999900",
"% c #CC9933",
"& c #CCCC66",
"* c #868686",
"= c gray59",
"- c #FFCC99",
"; c #FFFF99",
": c #C0C0C0",
"> c #FFFFCC",
", c #F1F1F1",
"< c gray100",
"1 c None",
/* pixels */
"1111111111111111",
"11$$$$$ 11111111",
"1$1>>;;$ 1111111",
"$&&&&&&&$$$$$$11",
"$>>>>>>>>>>>;&.1",
"$>;;;===;+;;-&.1",
"$>;;=>@1+O;-;&.1",
"$>;=>1>+o#X;-&.1",
"$>;=@>1o#%X-;&.1",
"$>;*>1,:%%X;-&.1",
"$>;;+,+,:X;--&.1",
"$>---XXXX----&.1",
"$&&&&&&&&&&&&&.1",
"1              1",
"1111111111111111",
"1111111111111111"
};
