/* XPM */
static const char *xpm_xmltreenav3[] = {
/* columns rows colors chars-per-pixel */
"48 48 211 2 ",
"   c #0C0C0C",
".  c #1D1D1E",
"X  c #262626",
"o  c #2B2B2B",
"O  c #333333",
"+  c #3D3E3E",
"@  c #383736",
"#  c #362F2F",
"$  c #782018",
"%  c #703838",
"&  c #434444",
"*  c #4C4B4B",
"=  c #484746",
"-  c #535352",
";  c #5C5D5D",
":  c #50504F",
">  c #694745",
",  c #6D5050",
"<  c #61605E",
"1  c #636464",
"2  c #6C6C6C",
"3  c #766968",
"4  c #6F6F70",
"5  c #737372",
"6  c #7A7977",
"7  c #7B7A7A",
"8  c #97260F",
"9  c #BA2805",
"0  c #BB3619",
"q  c #AB2911",
"w  c #863534",
"e  c #9D362F",
"r  c #AA3828",
"t  c #A52821",
"y  c #CE3904",
"u  c #CD3824",
"i  c #924134",
"p  c #B14A2B",
"a  c #B0643D",
"s  c #D94C0A",
"d  c #D95206",
"f  c #EA5A06",
"g  c #DA6412",
"h  c #F16B08",
"j  c #FC780A",
"k  c #EC6C0A",
"l  c #D55522",
"z  c #D37130",
"x  c #AD4C4B",
"c  c #A15A5A",
"v  c #8F6D6D",
"b  c #A56663",
"n  c #B07670",
"m  c #CB756D",
"M  c #008A00",
"N  c #1BA000",
"B  c #5CC91F",
"V  c #FF830D",
"C  c #FF8B11",
"Z  c #FF971B",
"A  c #FF9016",
"S  c #DF8026",
"D  c #FF9D22",
"F  c #E5933D",
"G  c #FFAA2A",
"H  c #FFA421",
"J  c #FFB12F",
"K  c #FFB936",
"L  c #FFC639",
"P  c #84837E",
"I  c #8C817F",
"U  c #EBB44A",
"Y  c #E8956A",
"T  c #FFCC42",
"R  c #F7C745",
"E  c #FFDA4B",
"W  c #F8CD57",
"Q  c #F8D759",
"!  c #EDC24C",
"~  c #FFEB57",
"^  c #FFF25B",
"/  c #FFFB5D",
"(  c #FDF560",
")  c #5472BA",
"_  c #667EB4",
"`  c #4B6DD7",
"'  c #5E79C8",
"]  c #667FC8",
"[  c #788B9D",
"{  c #778AA6",
"}  c #718CB7",
"|  c #6682D9",
" . c #6E94CD",
".. c #7996E8",
"X. c #6C95F3",
"o. c #6A96E4",
"O. c #7DA9F8",
"+. c #838383",
"@. c #8B8986",
"#. c #83868B",
"$. c #8D8C8C",
"%. c #8B8686",
"&. c #918F8E",
"*. c #90908F",
"=. c #858B97",
"-. c #949494",
";. c #999795",
":. c #9C9C9B",
">. c #999999",
",. c #B98888",
"<. c #B89595",
"1. c #A19D9D",
"2. c #A1A09E",
"3. c #999CA1",
"4. c #8594A6",
"5. c #8AA2B7",
"6. c #96A6B4",
"7. c #9CA2A6",
"8. c #A5A5A5",
"9. c #ABA9A6",
"0. c #ABABAB",
"q. c #B0ADAB",
"w. c #BFA6A6",
"e. c #B6B4AE",
"r. c #AAACB1",
"t. c #B3B3B2",
"y. c #BBB9B5",
"u. c #BCBBB9",
"i. c #B8B7B8",
"p. c #C7ABAB",
"a. c #C4BFBB",
"s. c #CDBCB5",
"d. c #AEDBAB",
"f. c #EFE592",
"g. c #C4C2BD",
"h. c #CFE5B1",
"j. c #F3ECB0",
"k. c #8C9DCF",
"l. c #90AAD7",
"z. c #A8B6C3",
"x. c #B6BDC5",
"c. c #85B6F9",
"v. c #99BBF8",
"b. c #91AEED",
"n. c #A5BDF7",
"m. c #BBC9D5",
"M. c #BFC1C2",
"N. c #97CBFF",
"B. c #9BCDFF",
"V. c #93C4F7",
"C. c #9FD0FF",
"Z. c #86C0FF",
"A. c #B8CDE9",
"S. c #A7CAFA",
"D. c #B3CCFA",
"F. c #A4D2FF",
"G. c #ACD6FF",
"H. c #AFD8FF",
"J. c #B4DBFF",
"K. c #BBDEFF",
"L. c #BBD8F9",
"P. c #B3CFE7",
"I. c #BEE1FF",
"U. c #C3C3C2",
"Y. c #CBCCCB",
"T. c #C5C8C8",
"R. c #D2CFCC",
"E. c #D0CBC6",
"W. c #D4D3CF",
"Q. c #C8D2DC",
"!. c #D5D3D2",
"~. c #DBD6D4",
"^. c #DBDAD7",
"/. c #DDDCDA",
"(. c #DAD7DB",
"). c #CCCDD1",
"_. c #E1DED8",
"`. c #DBEFD8",
"'. c #E2E1DD",
"]. c #C9D8E8",
"[. c #D5DBEA",
"{. c #C7DEF4",
"}. c #DFE0E1",
"|. c #C4E3FF",
" X c #CAE6FF",
".X c #CEE9FF",
"XX c #CBE2F3",
"oX c #D4EBFF",
"OX c #DAEEFF",
"+X c #D6E5F5",
"@X c #DDF1FF",
"#X c #D5F2FF",
"$X c #E5E3E1",
"%X c #EBEAE6",
"&X c #EDEDEC",
"*X c #E7E7E6",
"=X c #F1EFEA",
"-X c #E9F6E5",
";X c #F4F2EC",
":X c #FAF5EE",
">X c #EFF0F0",
",X c #E2F3FF",
"<X c #EBFAFF",
"1X c #F4F4F4",
"2X c #FAF6F1",
"3X c #FEFCF4",
"4X c #F7F8F8",
"5X c #FEFEFD",
"6X c #F6F8F7",
"7X c #E7EDFD",
"8X c None",
/* pixels */
"8X8X8X8X8X8X8X8X8X8X8X8X8X8X8X8X8X8X8X8X8X8X8X8X8X8X8X8X8X8X8X8X8X8X8X8X8X8X8X8X8X8X8X8X8X8X8X8X",
"8X8X8X8X8X8X8X8X8X8X8X8X8X8X8X8X8X8X8X8X8X8X8X8X8X8X8X8X8X8X8X8X8X8X8X8X8X8X8X8X8X8X8X8X8X8X8X8X",
"8X8X8X8X8X8X8X8X8X8X8X8X8X8X8X8X8X8X8X8X8X8X8X8X8X8X8X8X8X8X8X8X8X8X8X8X8X8X8X8X8X8X8X8X8X8X8X8X",
"8X8X8X8X8X8X8X8X8X8X8X8X8X@.:.:.*.@.@.4 + X 8X8X8X8X8X8X8X8X8X8X8X8X8X8X8X8X8X8X8X8X8X8X8X8X8X8X",
"8X8X8X8X8X8X8X8X8X8X1 @.9.a.a.a.g.u.r.y.a.v * . 8X8X8X8X8X8X8X8X8X8X8X8X8X8X8X8X8X8X8X8X8X8X8X8X",
"8X8X8X8X8X8X8X8X8X7 u._.).l.] ` ` ' ] _ { i.q.7 O 8X8X8X8X8X8X8X8X8X8X8X8X8X8X8X8X8X8X8X8X8X8X8X",
"8X8X5X5X5X5X5XU.%.g.~.k.] X.n.{.oXJ.v.v.X.) { 8.@.* $./.5X5X5X5X5X5X5X5X5X5X5X5X5X5X5X5X5X5X8X8X",
"8X8X5X[.$X}.0.7 E.[...X.D.7X<X,XOX@X,X.XI.C.o.} 3.P : 4 Y.$X$X$X$X$X$X$X$X*X$X*X*X$X*X$X$X5X8X8X",
"8X8X5X$X$XY.+.U.[.b.n.OX<X7XOXoXoX X|.I.K.K.G.c.} [ P @ @.^.%X%X%X%X%X%X%X&X%X%X%X&X&X&X*X5X8X8X",
"8X8X5X`.(.:.9.*Xb.c.{.oX.X.X.X.X X|.I.I.J.G.F.C.c._ :.< @ q.`.'.$X$X$X$X$X'.$X$X$X$X'.$X%X5X8X8X",
"8X8X5X}.a.%.(.A.O.K. X{. X|. X X{.K.L.J.G.F.C.B.V. .[ -.o 7 R.%X%X&X%X&X%X%X%X%X=X%X;X$X%X5X8X8X",
"8X8X5X_.:.8.*Xc.B.K.K.K.K.{.K.K.K.J.J.H.F.F.N.N.F.V.} 2.- = r.*X>X&X1X>X1X1X1X1X&X&X=X$X=X5X8X8X",
"8X8X5X/.7 !.[.c.G.H.J.J.J.J.K.J.J.G.G.G.C.C.N.C.F.F.l.[ 6 X - %.-.-.>.-.-.>.>.*.1X&X=X$X=X5X8X8X",
"8X8X5Xe.>._.D.V.F.F.F.G.J.D.G.G.G.F.F.B.N.N.N.F.H.I.C.{ &.o 2 ).1X1X>X1X>X1X>X1X&X&X1X$X;X5X8X8X",
"8X8X5X0.2.$XS.c.F.F.F.F.F.F.F.F.F.F.B.N.N.C.F.F.I.I.I.{ :.o ; U.&X&X&X&X&X>X&X&X&X&X;X$X;X5X8X8X",
"8X8X5Xt.2.*XS.Z.B.N.N.B.B.B.F.N.N.N.N.N.C.F.G.I.I.|.|.} >.@ O 4 =.1X>X>X&X>X&X1X>X&X1X$X1X5X8X8X",
"8X8X5Xt.:.%XS.N.F.N.N.N.N.N.N.N.N.B.F.F.G.J.J.I.|.oXI.5.P = * i.>X>X&X>X>X>X>X>X>X>X1X$X;X5X8X8X",
"8X8X5Xt.:.'.S.S.G.F.F.F.F.B.C.F.F.F.G.G.J.K.|. X X#X{.4.7 + - d.1X1X1X4X4X1X4X4X>X1X:X$X2X5X8X8X",
"8X8X5Xg.2.R.L.G.J.J.G.G.G.G.G.G.G.J.J.K.|.|. XoX.XoXI.[ %.o + 7 -.-.;.;.-.-.-.&.4X1X:X$X2X5X8X8X",
"8X8X5XR.1.y.+XH.I.|.I.K.K.K.K.K.I.|.|.|. X X.XoXoX@XP.[ 4 # 7 (.4X4X4X4X4X4X4X4X1X1X2X$X4X5X8X8X",
"8X8X5X'.8.:.$XI.J..X X X|.|.|.|.|. X X.X.XoXoXoXOXoX5.$.: + 3.*X4X4X4X1X>X1X1X1X1X1X2X$X2X5X8X8X",
"8X8X5X=Xy.$.E.+XG..X.X X.X.X.X.X.X.XoXoXoXoXoXOX,XA.=.%.1 # % c v =.&.4X1X1X1X1X1X1X2X$X3X5X8X8X",
"8X8X5X=X~.-.8.!.XX|..X#XoXoXoXoXoXoXoXoXoXOXOX,X{.6.&.i.).;.n Y u m s.>X1X1X1X6X1X1X4X$X3X5X8X8X",
"8X8X5X=X$Xu.$.0.(.XXI.oXOXoXoXoX#XOXOX@X@X,X@XXXz.$.%.0.).$X(.j.W l p <._.5X5X5X1X4X4X$X5X5X8X8X",
"8X8X5X;X$X;X5 2 t.!.{.|.oXOXOXOX@X@X@X@X@XoX].6.#.5 & ; >.u.].f.^ ~ F 0 w v $.$.5X4X3X$X5X5X8X8X",
"8X8X5X;X'.;X1X9.1 0.E.Q.{. XoXoX@X@X#X.X].x.7.&.7 * : , n p.h.Q L E ( W z r <.^.4X4X5X$X3X5X8X8X",
"8X8X5X;X$X;X1X>X8.5 -.q.u.M.m.].Q.m.m.i.r.3.$.2 * - ;.p.Y Y W H D K T ~ ( U 0 x p.%X5X'.5X5X8X8X",
"8X8X5X;X$X3X*.-.-.6 1 2 P :.0.0.0.9.7.>.@.4 - * 2 ;.'.%.v q s j V D G K E ( Q z r n ~._.5X5X8X8X",
"8X8X5X:X$X:X1X1X1X4X_.r.*.2 1 7 4 3 2 2 1 ; 1 ;.U.R.3X5X>Xp.x 9 f V A H K L ~ / U p b u.4X5X8X8X",
"8X8X5X;X$X:X1X1X1X4X4X1X[.Y.0.+.[ P 6 6 @.9.y.$X3X'.5X5X4X5X~.,.t y h C Z G K E ^ ! a I %X5X8X8X",
"8X8X5X:X$X3X*.-.-.-.-.-.;.&.*.$.+.+.7 `.$X;X'.3X3X$X5X$.-.-.-.%.3 w q s j C Z J L R p < ^.5X8X8X",
"8X8X5X:X$X2X1X6X4X4X4X5X4X4X4X4X5X4X5X1X6X3X$X5X3X$X5X5X5X5X5X5X3X%X<.e 9 h V Z J S $ 3 /.5X8X8X",
"8X8X5X2X'.3X6X4X4X4X4X4X1X1X1X1X1X6X1X2X6X3X$X5X3X$X5X5X5X5X5X5X5X5X4Xa.b 8 s k g 8 > %.*X5X8X8X",
"8X8X5X:X$X3X&.-.-.-.-.&.4X1X1X1X1X6X4X4X4X5X'.5X5X'.5X$.-.-.-.-.$.5X5X5X}.<.e p i > $.i.4X5X8X8X",
"8X8X5X3X$X3X6X4X4X4X5X4X    1X1X1X    4X    '.3X5X$X    5X    5X5X4X4X5X5X>X!.q.:.t.^.`.5X5X8X8X",
"8X8X5X:X'.3X6X4X4X  4X5X5X    5X    4X4X      5X3X      5X    5X5X5X5X  5X5X5X6X&X>X5X}.5X5X8X8X",
"8X8X5X2X$X3X      -.-.-.-.-.  -.  &.5X4X      5X-X      -.    -.-.-.-.-.      5X5X5X5X$X5X5X8X8X",
"8X8X5X3X      5X4X5X3X5X4X5X      5X4X4X    +X    h.    5X    5X5X5X5X5X5X5X      5X5X$X5X5X8X8X",
"8X8X5X3X      3X3X3X3X5X3X3X  5X  5X3X5X    B     N     `.    5X5X5X5X5X5X5X      5X5X$X5X5X8X8X",
"8X8X5X2X$X$X      $X$X$X$X    '.    $X'.    7X5X5Xd.    $X    $X$X$X$X$X      $X$X$X$X$X5X5X8X8X",
"8X8X5X>X2X3X3X3X3X  3X3X    5X3X5X    5X    5X6X`.M     5X          5X  5X5X5X5X5X5X5X5X5X5X8X8X",
"8X8X5X1X1X1X1X6X1X6X6X4X4X4X6X5X4X5X4X4X5X3X5X5X4X-X5X5X5X5X5X5X5X5X5X5X5X5X5X5X5X5X5X5X5X5X8X8X",
"8X8X5X5X5X5X5X5X5X5X5X5X5X5X5X5X5X5X5X5X5X5X5X5X5X5X5X5X5X5X5X5X5X5X5X5X5X5X5X5X5X5X5X5X5X5X8X8X",
"8X8X8X8X8X8X8X8X8X8X8X8X8X8X8X8X8X8X8X8X8X8X8X8X8X8X8X8X8X8X8X8X8X8X8X8X8X8X8X8X8X8X8X8X8X8X8X8X",
"8X8X8X8X8X8X8X8X8X8X8X8X8X8X8X8X8X8X8X8X8X8X8X8X8X8X8X8X8X8X8X8X8X8X8X8X8X8X8X8X8X8X8X8X8X8X8X8X",
"8X8X8X8X8X8X8X8X8X8X8X8X8X8X8X8X8X8X8X8X8X8X8X8X8X8X8X8X8X8X8X8X8X8X8X8X8X8X8X8X8X8X8X8X8X8X8X8X",
"8X8X8X8X8X8X8X8X8X8X8X8X8X8X8X8X8X8X8X8X8X8X8X8X8X8X8X8X8X8X8X8X8X8X8X8X8X8X8X8X8X8X8X8X8X8X8X8X",
"8X8X8X8X8X8X8X8X8X8X8X8X8X8X8X8X8X8X8X8X8X8X8X8X8X8X8X8X8X8X8X8X8X8X8X8X8X8X8X8X8X8X8X8X8X8X8X8X"
};
