/* XPM */
static const char *xpm_light_grey[] = {
/* columns rows colors chars-per-pixel */
"16 16 90 1",
"  c black",
". c #000001",
"X c #020200",
"o c #060600",
"O c #0A0A00",
"+ c #0B0B0B",
"@ c #0C0C0C",
"# c #0D0D0D",
"$ c #0E0E0E",
"% c #1F1F1F",
"& c #202000",
"* c #202020",
"= c #232323",
"- c #242424",
"; c #3D3D3D",
": c #555500",
"> c #595900",
", c #5E5E00",
"< c #636300",
"1 c #656500",
"2 c #777700",
"3 c #4D4D43",
"4 c #484848",
"5 c #4D4D4D",
"6 c #575757",
"7 c #6F6F59",
"8 c #6B6B6B",
"9 c #717171",
"0 c #727272",
"q c #757575",
"w c #797979",
"e c #79797A",
"r c #7A7A7A",
"t c #7A7A7D",
"y c #7C7C7C",
"u c #7D7D7D",
"i c #7E7E7E",
"p c #919100",
"a c #ACAC5F",
"s c #A5A572",
"d c #898989",
"f c #9F9F9F",
"g c #A4A4A4",
"h c #A6A6A6",
"j c #A9A9A9",
"k c #ABABAB",
"l c #ACACAC",
"z c #AEAEAE",
"x c #AFAFB1",
"c c #B1B1B2",
"v c #B1B1B3",
"b c #B3B3B3",
"n c #B5B5B5",
"m c #BCBCBC",
"M c #CECE9C",
"N c #C7C7AE",
"B c #C3C3B2",
"V c #C3C3B3",
"C c #C1C1B5",
"Z c #C5C5B9",
"A c #CACABA",
"S c #C0C0C0",
"D c #C1C1C1",
"F c #C8C8C8",
"G c #CCCCCC",
"H c #CDCDCD",
"J c #CECECF",
"K c #CFCFD0",
"L c #D1D1D1",
"P c #D3D3D0",
"I c #D2D2D3",
"U c #D4D4D4",
"Y c #D5D5D5",
"T c #DADAD6",
"R c #DADADB",
"E c #DBDBDB",
"W c #DCDCDD",
"Q c #DDDDDD",
"! c #DEDEDE",
"~ c #DFDFDF",
"^ c #E1E1E1",
"/ c #E2E2E2",
"( c #E3E3E3",
") c #E4E4E4",
"_ c #E5E5E6",
"` c #E6E6E6",
"' c #E6E6E7",
"] c #E9E9E9",
"[ c #F6F6F6",
"{ c None",
/* pixels */
"{{{{ @6dd6@ {{{{",
"{{{ ;f^]))c; {{{",
"{{{@gLW)()[z@{{{",
"{{ 5^WRJLLWW4 {{",
"{{ t)TABVNP)q {{",
"{{ 0WCsMMaZ)0 {{",
"{{{-DmwcctFD={{{",
"{{{ qYkwtzY8 {{{",
"{{{{*ngttnJ*{{{{",
"{{{{ rYgj(t {{{{",
"{{{{{-JcbJ={{{{{",
"{{{{{ 3773 {{{{{",
"{{{{{o1pp<O{{{{{",
"{{{{{O:,,:O{{{{{",
"{{{{{O>22>O{{{{{",
"{{{{{ &11& {{{{{"
};
