/* XPM */
static char *xpm_paste[] = {
/* columns rows colors chars-per-pixel */
"16 16 7 1",
"  c black",
". c navy",
"X c yellow",
"o c #808080",
"O c #C0C0C0",
"+ c gray100",
"@ c None",
/* pixels */
"@@@@@@@@@@@@@@@@",
"@@@@@    @@@@@@@",
"@     XX     @@@",
" ooo X  X ooo @@",
" oo OOOOOO oo @@",
" oo        oo @@",
" oooooooooooo @@",
" ooooo....... @@",
" ooooo.+++++..@@",
" ooooo.+++++.+.@",
" ooooo.+...+...@",
" ooooo.+++++++.@",
" ooooo.+.....+.@",
"@     .+++++++.@",
"@@@@@@.........@",
"@@@@@@@@@@@@@@@@"
};
