/* XPM */
static const char *xpm_xmltreenav2[] = {
/* columns rows colors chars-per-pixel */
"48 48 175 2 ",
"   c black",
".  c #0C0C0C",
"X  c #131313",
"o  c gray13",
"O  c #5A5A5A",
"+  c #504A4A",
"@  c #75544D",
"#  c #695B5B",
"$  c #6C6C6C",
"%  c #606162",
"&  c #706160",
"*  c #6B6E71",
"=  c #6C7176",
"-  c #7A7A7B",
";  c #74777B",
":  c #B9501E",
">  c #A25E34",
",  c #D36616",
"<  c #F27E13",
"1  c #C76233",
"2  c #D06332",
"3  c #B97C42",
"4  c #816C6B",
"5  c #8D6562",
"6  c #008900",
"7  c #008700",
"8  c #2EAD07",
"9  c #49BE15",
"0  c #D89538",
"q  c #EE9C3B",
"w  c #FFB532",
"e  c #CF8E53",
"r  c #D59356",
"t  c #D38B6C",
"y  c #DB9473",
"u  c #F4C446",
"i  c #F2C85D",
"p  c #737B84",
"a  c #5278AB",
"s  c #0B6BEF",
"d  c #0867EF",
"f  c #0C6BF0",
"g  c #116DF1",
"h  c #1B74F1",
"j  c #1671F0",
"k  c #257AF2",
"l  c #2C7EF2",
"z  c #2177F1",
"x  c #6986AE",
"c  c #7E8EA5",
"v  c #7D93B3",
"b  c #2F80F3",
"n  c #3483F3",
"m  c #3A87F4",
"M  c #3B88F5",
"N  c #438CF4",
"B  c #4B92F5",
"V  c #4690F5",
"C  c #5295F5",
"Z  c #5498F6",
"A  c #5B9CF6",
"S  c #639BE9",
"D  c #619FF8",
"F  c #64A2F7",
"G  c #6AA6F9",
"H  c #6FA9F9",
"J  c #66A3F8",
"K  c #75ACF9",
"L  c #75ACF8",
"P  c #7DB1FB",
"I  c #838485",
"U  c #8E8E8E",
"Y  c #92918E",
"T  c #858C95",
"R  c #8E949A",
"E  c #959594",
"W  c #9A9B9B",
"Q  c #989A9A",
"!  c #AB9188",
"~  c #B19288",
"^  c #AA9C9C",
"/  c #8F95A3",
"(  c #999DA0",
")  c #8A9BBE",
"_  c #9BA1A9",
"`  c #99A7B9",
"'  c #A5A5A6",
"]  c #ACABA8",
"[  c #B0AFAD",
"{  c #ACB2BF",
"}  c #B4B4B3",
"|  c #BBBCBC",
" . c #B8B8B8",
".. c #C3A89E",
"X. c #CEAAA8",
"o. c #D4A7A4",
"O. c #D2A9A6",
"+. c #D3ABA9",
"@. c #D5BEBE",
"#. c #AEDBAB",
"$. c #B8DFB6",
"%. c #DAD2A5",
"&. c #839EC5",
"*. c #9BAAC6",
"=. c #93ACDD",
"-. c #A4AFCB",
";. c #AFB9C6",
":. c #B6BFC7",
">. c #8AB6EC",
",. c #96BAE8",
"<. c #84B5FB",
"1. c #8BBAFC",
"2. c #92BEFD",
"3. c #99BEF1",
"4. c #A9BEEA",
"5. c #BCC2CC",
"6. c #A4C1DC",
"7. c #9CC5FD",
"8. c #9CCDFF",
"9. c #96C5FE",
"0. c #A9C6EB",
"q. c #B5CCE7",
"w. c #A4CAFE",
"e. c #ADC9F6",
"r. c #A3D1FF",
"t. c #ACD5FF",
"y. c #AFD8FF",
"u. c #BBD3F7",
"i. c #B4DAFF",
"p. c #BDDEFF",
"a. c #B7D2F5",
"s. c #B6CCF6",
"d. c #CDCECF",
"f. c #D2C8C7",
"g. c #D2D0CB",
"h. c #C3CEDC",
"j. c #DCDDDC",
"k. c gray84",
"l. c #E1DED7",
"z. c #C4E7C0",
"x. c #DAEEDA",
"c. c #D9EED4",
"v. c #E2E1DE",
"b. c #E9E4DF",
"n. c #C3D3E2",
"m. c #C6D8E6",
"M. c #DEDFE0",
"N. c #C3DFFB",
"B. c #CEE0EF",
"V. c #DFE0E1",
"C. c #C4E2FF",
"Z. c #CBE6FE",
"A. c #CFE2F2",
"S. c #D2E4FC",
"D. c #D2EAFF",
"F. c #D9EDFF",
"G. c #E4E4E4",
"H. c #E9E6E3",
"J. c #ECEAE6",
"K. c #E7E8E8",
"L. c #EDEDED",
"P. c #E6E7E8",
"I. c #F1EEEA",
"U. c #E9F6E5",
"Y. c #F4F2ED",
"T. c #FAF5EE",
"R. c #ECEFF8",
"E. c #EFF0F0",
"W. c #F3F4F4",
"Q. c #FAF7F1",
"!. c #FEFCF4",
"~. c #F7F8F8",
"^. c #FEFEFD",
"/. c #F4F9F5",
"(. c None",
/* pixels */
"(.(.(.(.(.(.(.(.(.(.(.(.(.(.(.(.(.(.(.(.(.(.(.(.(.(.(.(.(.(.(.(.(.(.(.(.(.(.(.(.(.(.(.(.(.(.(.(.",
"(.(.(.(.(.(.(.(.(.(.(.(.(.(.(.(.(.(.(.(.(.(.(.(.(.(.(.(.(.(.(.(.(.(.(.(.(.(.(.(.(.(.(.(.(.(.(.(.",
"(.(.(.(.(.(.(.(.(.(.(.(.(.(.(.(.(.(.(.(.(.(.(.(.(.(.(.(.(.(.(.(.(.(.(.(.(.(.(.(.(.(.(.(.(.(.(.(.",
"(.(.(.(.(.(.(.(.(.(.(.(.(.(.(.(.(.(.(.(.(.(.(.(.(.(.(.(.(.(.(.(.(.(.(.(.(.(.(.(.(.(.(.(.(.(.(.(.",
"(.(.(.(.(.(.(.(.(.(.(.(.(.(.(.(.(.(.(.(.(.(.(.(.(.(.(.(.(.(.(.(.(.(.(.(.(.(.(.(.(.(.(.(.(.(.(.(.",
"(.(.(.(.(.(.(.(.(.(.(.(.(.(.(.(.(.(.(.(.(.(.(.(.(.(.(.(.(.(.(.(.(.(.(.(.(.(.(.(.(.(.(.(.(.(.(.(.",
"(.(.^.^.^.^.^.^.^.^.^.^.^.^.^.^.^.^.^.^.^.^.^.^.^.^.^.^.^.^.^.^.^.^.^.^.^.^.^.^.^.^.^.^.^.^.(.(.",
"(.(.^.j.G.M.M.G.M.M.G.M.M.G.V.V.G.M.V.V.G.M.G.V.V.G.V.V.V.G.G.G.G.P.G.G.P.G.P.G.P.P.P.K.G.^.(.(.",
"(.(.^.G.G.v.G.G.v.H.G.v.G.l.G.H.G.b.H.H.G.G.G.V.d.| } } [ } d.G.H.J.J.J.J.J.J.J.J.J.J.L.K.^.(.(.",
"(.(.^.j.a.w.w.w.w.w.w.w.w.w.w.w.w.w.w.w.w.w.q.} [ ;.-.*.` / T ) 3.w.w.w.w.w.w.w.w.w.w.a.L.^.(.(.",
"(.(.^.G.w.H.Y.W.Y.I.Y.H.G.G.G.G.H.H.G.H.G.l.` ;.4.4.s.u.4.=.) p Q j.J.J.J.J.L.J.J.I.Y.w.J.^.(.(.",
"(.(.^.v.7.L.. X o X . E.G.L.K.L.K.G.K.G.G. .;.0.e.Z.D.D.S.N.3.&.- W L.W.W.E.W.W.L.L.Y.7.I.^.(.(.",
"(.(.^.G.7.H.} ^.X ^.} P.P.E E E E G.P.P.d.} 0.w.i.p.C.p.N.i.t.>.v % - E E E E U W.L.E.9.I.^.(.(.",
"(.(.^.v.2.H.V.E.X W.G.G.G.L.L.L.L.P.K.P. .d.w.8.t.y.y.y.y.t.w.9.v $ Q L.W.W.W.W.L.L.I.2.Y.^.(.(.",
"(.(.^.v.2.H.G.E.X W.G.P.P.L.L.L.L.L.L.P.} h.8.8.8.8.r.r.8.8.8.r.>.; ; M.E.E.L.E.E.L.W.2.Y.^.(.(.",
"(.(.^.H.1.H.G.~.X ~.P.P.L.U Q R Q Q Y L.[ q.t.r.r.8.8.8.8.r.r.i.0.p $ k.L.E.I.E.E.E.Y.1.W.^.(.(.",
"(.(.^.H.<.H.P.' X ' K.K.P.E.I.E.E.E.E.K.} h.u.p.i.t.t.t.y.i.C.C.6.= $ V.E.E.E.E.E.E.W.<.Y.^.(.(.",
"(.(.^.H.<.H.L.E.^.W.E.E.E.L.E.W.E.E.E.L.:. .A.Z.Z.C.C.C.C.C.Z.Z.` O I L././.~.~.W.E.T.<.W.^.(.(.",
"(.(.^.H.P I.E Q E Q E E E E E E Q E E W.k.] h.S.Z.D.Z.D.D.D.D.q.T + $ E E E E U ~.W.Q.K Q.^.(.(.",
"(.(.^.K.K I.L.L.I.R.E.E.W.E.W.R.E.W.E.L.L. .( n.S.F.F.F.F.F.m.` I & @.~.~.~.~.~.Y.W.~.L !.^.(.(.",
"(.(.^.J.H I.I.E.E.W.E.W.W.W.L.L.L.E.L.E.I.G.x W 5.n.B.B.m.5.T I  ...y o.L.W.W.W.W.W.Q.K Q.^.(.(.",
"(.(.^.I.G T.Y E E E E E E Y W.L.E.L.E.E.E.Q.S [ U U ( Q U $ O + ! %.i r O.L.W.W.W.W.Q.G !.^.(.(.",
"(.(.^.I.D Y.E.E.W.E.W.W.W.E.I.E.E.E.E.E.E.Q.D I.g.a Y I c U [ %.t q w u r o.E.W.W.W.!.D !.^.(.(.",
"(.(.^.I.D I.W.W.E.W.W.E.W.W.W.W.W.W.~.E.E.Q.D Q.T.A b.v.v.R.~.~.+.2 < w u e +.~.W.~.^.D ^.^.(.(.",
"(.(.^.Y.A Q.Y E E E E E E Q E Q E E Y ~.W.Q.A Q.Q.A ^.U E E E E U 5 : < w u 3 4 ~.~.^.A ^.^.(.(.",
"(.(.^.Y.Z Y.W.W.W.W.~.W.W.W.W.W.~.W.~.E.E.!.Z Q.!.Z !.!.~.^.^.~.^.~.X.1 < w 0 ~ L.!.!.C !.^.(.(.",
"(.(.^.Y.C Y.W.W.W.W.W.~.~.~.~.~.~.~.~.W.W.Q.C !.!.B !.^.^.~.^.^.^.^.~.X.1 , > ^ E.~.!.C ^.^.(.(.",
"(.(.^.Y.B T.E E E E E E E E E E E E Y ~.W.!.B !.!.B ^.U E E E E E E E E 4 @ # - ^.^.^.B ^.^.(.(.",
"(.(.^.T.V T.W.W.W.~.W.W.~.~.~.~.~.~.~.W.W.!.N !.!.N !.^.^.^.^.^.^.^.^.^.^.W.~.^.~.~.^.N ^.^.(.(.",
"(.(.^.Y.N T.~.W.~.~.~.~.~.~.~.~.~.^.^.W.W.!.N !.!.N ^.^.^.^.^.^.^.^.^.^.^.^.^.^.~.^.^.N ^.^.(.(.",
"(.(.^.T.M !.U E E E E E E E E E E E U ~./.^.M !.!.M ^.U E E E E     E E E E E U ^.^.^.m ^.^.(.(.",
"(.(.^.T.m Q.W.~.~.~.~.~.~.~.^.~.~.^.^.W./.!.m !.^.m ^.^.^.^.^.^.    ^.^.^.^.^.^.~.~.^.m ^.^.(.(.",
"(.(.^.Q.b T.~.~.~.!.~.  W.W.W.W.W.~.W.~.~.!.n !.^.n ^.^.^.^.^.^.    ^.~.  ~.^.~.^.~.^.n ^.^.(.(.",
"(.(.^.T.b ^.U E       E ~.    W.W.W.    ~.                  E E     ^.^.^.      ^.^.^.l ^.^.(.(.",
"(.(.^.Q.l       ~.~.~.~.W.W.    ~.    ~.~.    ^.^.    ^.^.    ^.    ~.^.^.^.~.^.      k ^.^.(.(.",
"(.(.^.Q.z       ~.^.^.~.~.^.^.      ~.~.~.    ^.^.    ^.^.    ^.    ^.^.^.^.^.^.      z ^.^.(.(.",
"(.(.^.Q.z ^.U E       E E E E       ^.~.~.    ^.U.     .E     E     E E E       ^.^.^.h ^.^.(.(.",
"(.(.^.Q.h !.~.!.^.~.^.  ^.^.    ^.    ~.^.    ^.^.    z.^.    ^.    ^.^.  ^.^.^.^.^.^.j ^.^.(.(.",
"(.(.^.Q.g !.!.!.!.!.!.!.!.    ^.^.!.    ^.    9 8     6 c.    ^.    ^.^.^.^.^.^.^.^.^.g ^.^.(.(.",
"(.(.^.Q.C s s s f f f f f s s s f f f d L S.R.^.^.#.6 $.<.d f f f f s s f s s s f f f A ^.^.(.(.",
"(.(.^.E.!.!.!.!.!.!.!.^.!.!.^.!.^.^.^.^.^.!.^.~.x.7 x.^.^.^.^.^.^.^.^.^.^.^.^.^.^.^.^.^.^.^.(.(.",
"(.(.^.W.W.W.W.W.W.~.W.~.~.~.~.~.~.~.!.~.!.^.~.^.~.U.^.^.^.~.^.^.^.^.^.^.^.^.^.^.^.^.^.^.^.^.(.(.",
"(.(.^.^.^.^.^.^.^.^.^.^.^.^.^.^.^.^.^.^.^.^.^.^.^.^.^.^.^.^.^.^.^.^.^.^.^.^.^.^.^.^.^.^.^.^.(.(.",
"(.(.(.(.(.(.(.(.(.(.(.(.(.(.(.(.(.(.(.(.(.(.(.(.(.(.(.(.(.(.(.(.(.(.(.(.(.(.(.(.(.(.(.(.(.(.(.(.",
"(.(.(.(.(.(.(.(.(.(.(.(.(.(.(.(.(.(.(.(.(.(.(.(.(.(.(.(.(.(.(.(.(.(.(.(.(.(.(.(.(.(.(.(.(.(.(.(.",
"(.(.(.(.(.(.(.(.(.(.(.(.(.(.(.(.(.(.(.(.(.(.(.(.(.(.(.(.(.(.(.(.(.(.(.(.(.(.(.(.(.(.(.(.(.(.(.(.",
"(.(.(.(.(.(.(.(.(.(.(.(.(.(.(.(.(.(.(.(.(.(.(.(.(.(.(.(.(.(.(.(.(.(.(.(.(.(.(.(.(.(.(.(.(.(.(.(.",
"(.(.(.(.(.(.(.(.(.(.(.(.(.(.(.(.(.(.(.(.(.(.(.(.(.(.(.(.(.(.(.(.(.(.(.(.(.(.(.(.(.(.(.(.(.(.(.(."
};
